<svg id="Capa_1" enable-background="new 0 0 512 512" height="512" viewBox="0 0 512 512" width="512" xmlns="http://www.w3.org/2000/svg"><g><g><path d="m288.603 121.636c0-17.484-9.986-32.628-24.564-40.056-7.818-3.983-12.661-12.1-12.661-20.874v-8.26c0-24.823-20.123-44.946-44.946-44.946s-44.946 20.123-44.946 44.946v13.111c0 6.433-3.894 12.185-9.817 14.697-16.108 6.832-27.408 22.783-27.408 41.382l4.264 84.607h156.903z" fill="#02905d"/><path d="m264.039 81.58c-7.818-3.983-12.661-12.1-12.661-20.874v-8.26c0-24.823-20.123-44.946-44.946-44.946-4.931 0-9.671.805-14.11 2.272 17.908 5.919 30.836 22.781 30.836 42.674v8.26c0 8.774 4.843 16.89 12.661 20.874 14.578 7.428 24.564 22.572 24.564 40.056l-3.174 84.607h28.219l3.174-84.607c.001-17.484-9.985-32.628-24.563-40.056z" fill="#017b4e"/><path d="m381.727 180.485c0-17.484-9.986-32.628-24.564-40.057-7.818-3.983-12.66-12.1-12.66-20.874v-8.26c0-24.823-20.123-44.946-44.946-44.946-24.823 0-44.946 20.123-44.946 44.946v13.111c0 6.433-3.894 12.185-9.817 14.697-16.108 6.831-27.408 22.783-27.408 41.382l4.264 56.387h156.903z" fill="#22b27f"/><path d="m357.163 140.428c-7.818-3.983-12.661-12.1-12.661-20.874v-8.26c0-24.823-20.123-44.946-44.946-44.946-4.931 0-9.671.805-14.11 2.272 17.908 5.919 30.837 22.781 30.837 42.674v8.26c0 8.774 4.843 16.89 12.661 20.874 14.578 7.428 24.564 22.572 24.564 40.056l-3.174 56.387h28.219l3.174-56.387c0-17.483-9.986-32.628-24.564-40.056z" fill="#09a76d"/><path d="m195.479 180.485c0-17.484-9.986-32.628-24.564-40.057-7.818-3.983-12.661-12.1-12.661-20.874v-8.26c0-24.823-20.123-44.946-44.946-44.946-24.823 0-44.946 20.123-44.946 44.946v13.111c0 6.433-3.894 12.185-9.817 14.697-16.108 6.831-27.408 22.783-27.408 41.382l4.264 56.387h156.903z" fill="#7acaa6"/><circle cx="314.544" cy="220.031" fill="#e94444" r="50.025"/><path d="m18.246 270.056 3.735 34.503c7.947 73.409 54.07 134.246 117.313 163.639 4.812 2.237 9.724 4.291 14.725 6.155v20.807c0 5.158 4.182 9.341 9.341 9.341h152.299 30.746c5.159 0 9.341-4.182 9.341-9.341v-20.807c70.728-26.362 123.487-90.8 132.038-169.794l3.735-34.503z" fill="#ac5e2e"/><path d="m363.434 230.63c1.859 2.201 3.832 4.275 5.888 6.242h97.584c16.42-15.712 26.854-39.195 26.854-65.451 0-61.26-33.873-110.921-75.657-110.921s-75.657 49.661-75.657 110.921c0 2.456.111 4.882.29 7.287 16.879 11.536 24.999 31.987 20.698 51.922z" fill="#dff6fd"/><ellipse cx="418.102" cy="167.251" fill="#fec165" rx="40.398" ry="43.074"/><path d="m452.012 270.056-3.735 34.503c-8.551 78.994-61.31 143.432-132.038 169.794v20.807c0 5.158-4.182 9.341-9.341 9.341h8.761 30.746c5.159 0 9.341-4.182 9.341-9.341v-20.807c70.728-26.362 123.487-90.8 132.038-169.794l3.735-34.503z" fill="#9e5528"/><path d="m452.525 399.128c9.754-14.051 17.806-29.408 23.839-45.794h-442.942c6.034 16.386 14.079 31.744 23.834 45.794z" fill="#dc8758"/><path d="m413.018 399.128h39.507c1.219-1.756 2.412-3.533 3.577-5.33 7.993-12.321 14.878-25.844 20.262-40.464h-39.507c-6.033 16.386-14.084 31.743-23.839 45.794z" fill="#d77f4a"/><path d="m418.102 60.499c-4.823 0-9.538.669-14.11 1.934 35.04 9.692 61.548 54.797 61.548 108.987 0 26.257-10.434 49.739-26.854 65.451h28.219c16.42-15.712 26.854-39.195 26.854-65.451 0-61.259-33.872-110.921-75.657-110.921z" fill="#c8effe"/><path d="m300.435 172.038c20.755 6.093 35.915 25.267 35.915 47.993s-15.16 41.901-35.915 47.993c32.107 9.424 64.135-14.695 64.135-47.993-.001-33.32-32.052-57.41-64.135-47.993z" fill="#d83131"/><path d="m170.915 140.428c-7.818-3.983-12.661-12.1-12.661-20.874v-8.26c0-24.823-20.123-44.946-44.946-44.946-4.931 0-9.671.805-14.11 2.272 17.908 5.919 30.837 22.781 30.837 42.674v8.26c0 8.774 4.843 16.89 12.661 20.874 14.578 7.428 24.564 22.572 24.564 40.056l-3.174 56.387h28.219l3.174-56.387c0-17.483-9.986-32.628-24.564-40.056z" fill="#57be92"/><circle cx="239.93" cy="220.031" fill="#f47c7c" r="50.025"/><path d="m239.93 170.006c-4.902 0-9.633.717-14.11 2.031 20.755 6.093 35.915 25.267 35.915 47.993s-15.16 41.901-35.915 47.993c4.476 1.314 9.208 2.031 14.11 2.031 27.628 0 50.025-22.397 50.025-50.025s-22.397-50.023-50.025-50.023z" fill="#ee6161"/><path d="m18.246 270.056v-29.202c0-2.199 1.783-3.982 3.982-3.982h465.309c2.199 0 3.982 1.783 3.982 3.982v29.202z" fill="#dc8758"/><path d="m487.537 236.872h-39.507c2.199 0 3.982 1.783 3.982 3.982v29.202h39.507v-29.202c0-2.199-1.783-3.982-3.982-3.982z" fill="#d77f4a"/></g><g><path d="m418.102 217.825c26.411 0 47.898-22.688 47.898-50.574 0-27.887-21.487-50.574-47.898-50.574s-47.898 22.688-47.898 50.574 21.487 50.574 47.898 50.574zm0-86.148c18.14 0 32.898 15.958 32.898 35.574 0 19.615-14.758 35.574-32.898 35.574s-32.898-15.958-32.898-35.574 14.758-35.574 32.898-35.574z"/><path d="m499.019 240.854c0-6.331-5.151-11.482-11.482-11.482h-4.317c11.596-16.346 18.039-36.703 18.039-57.952 0-31.121-8.333-60.476-23.464-82.659-15.729-23.061-36.928-35.761-59.693-35.761-18.456 0-35.714 8.081-49.907 23.37-6.558 7.064-12.322 15.593-17.138 25.048-4.635-24.212-25.958-42.569-51.501-42.569-13.633 0-26.065 5.232-35.401 13.79-3.317-2.959-5.276-7.257-5.276-11.932v-8.26c0-28.92-23.528-52.447-52.447-52.447s-52.446 23.527-52.446 52.446v13.111c0 3.21-1.869 6.11-4.78 7.554-9.391-8.834-22.018-14.263-35.898-14.263-15.311 0-29.818 6.667-39.801 18.292-2.699 3.142-2.339 7.877.803 10.576s7.877 2.34 10.576-.803c7.131-8.302 17.49-13.064 28.422-13.064 11.603 0 21.99 5.305 28.864 13.617.021.026.042.052.063.078 9.645 11.725 8.519 23.184 8.519 32.012 0 11.731 6.42 22.29 16.756 27.556 1.571.8 3.067 1.699 4.484 2.686 9.917 6.912 15.919 18.172 15.984 30.485l-.941 16.714c-4.431 10.353-5.586 21.941-3.871 32.375h-62.358v-16.366l40.323-49.196c2.625-3.204 2.157-7.929-1.046-10.555-3.204-2.626-7.929-2.157-10.555 1.046l-28.721 35.042v-71.601c0-4.142-3.358-7.5-7.5-7.5s-7.5 3.358-7.5 7.5v71.631l-28.803-35.077c-2.628-3.201-7.354-3.664-10.556-1.037-3.201 2.629-3.665 7.355-1.037 10.556l40.396 49.194v16.362h-63.454l-3.717-49.158c.106-14.952 9.046-28.358 22.835-34.207 8.741-3.707 14.389-12.186 14.389-21.602v-9.998c0-4.142-3.358-7.5-7.5-7.5s-7.5 3.358-7.5 7.5v9.998c0 3.382-2.059 6.441-5.245 7.792-19.427 8.239-31.979 27.193-31.979 48.287 0 .188.007.377.021.565l3.654 48.322h-5.086c-6.331 0-11.482 5.151-11.482 11.482 0 30.298-.027 29.336.043 29.995 0 .005 0 .009.001.014 4.113 37.996 5.472 84.826 43.049 136.436 21.204 29.123 49.661 52.534 82.295 67.7 3.408 1.584 6.886 3.088 10.386 4.493v15.668c0 9.286 7.555 16.84 16.841 16.84h183.045c9.286 0 16.841-7.555 16.841-16.84v-15.667c18.528-7.431 35.895-17.436 51.689-29.783 3.263-2.551 3.841-7.265 1.29-10.528-2.55-3.263-7.265-3.84-10.528-1.29-15.962 12.478-33.649 22.381-52.571 29.433-2.935 1.094-4.88 3.896-4.88 7.028v20.807c0 1.015-.826 1.84-1.841 1.84h-183.045c-1.015 0-1.841-.826-1.841-1.84v-20.807c0-3.132-1.946-5.935-4.882-7.028-4.775-1.779-9.547-3.773-14.182-5.928-27.531-12.795-51.342-31.734-69.994-54.769h365.067c-2.303 2.835-4.686 5.618-7.157 8.341-2.784 3.067-2.555 7.811.512 10.594 3.067 2.785 7.811 2.554 10.594-.513 30.312-33.394 48.903-74.78 53.764-119.685 4.846-44.771 3.778-24.44 3.778-64.509zm-142.983-11.482h-82.974c-6.466-28.624 17.407-54.833 46.283-51.587 24.833 2.804 42.29 26.685 36.691 51.587zm-144.809-40.718c16.152-14.089 39.11-15.172 55.918-1.207-8.636 12.545-11.704 27.704-9.364 41.924h-59.33c-3.27-14.531.982-30.231 12.776-40.717zm167.961-102.079c11.442-12.326 24.535-18.575 38.914-18.575 17.653 0 34.452 10.375 47.302 29.214 13.449 19.717 20.855 46.071 20.855 74.207 0 22.17-8.148 43.114-22.451 57.951h-91.398c-.322-.332-.639-.666-.951-1 3.037-20.701-5.46-41.096-21.45-53.628-.974-21.35 4.794-41.302 4.961-42.302 4.973-17.861 13.369-34.181 24.218-45.867zm-79.632-12.726c20.648 0 37.446 16.798 37.446 37.446v8.26c0 4.299.899 8.56 2.618 12.487-.071.29-.133.584-.203.874-2.455 9.911-3.955 20.15-4.388 30.318-4.876-.795-9.834-.945-14.825-.447-4.596-.451-8.797-.347-13.149.222v-45.268c0-4.142-3.358-7.5-7.5-7.5s-7.5 3.358-7.5 7.5v49.346c-5.144 2.193-10.017 5.202-14.202 8.675-.196.162-.399.315-.593.48-13.089-11.331-30.14-16.206-48.318-12.676 4.174-8.215 10.98-14.252 18.778-17.56 8.741-3.707 14.389-12.186 14.389-21.602 0-13.442-.837-20.351 4.037-29.991 6.454-12.72 19.389-20.564 33.41-20.564zm-133.802 45.706c0-9.052.926-20.779-7.102-34.598 6.393-4.323 10.334-11.535 10.334-19.399v-13.112c0-20.648 16.798-37.446 37.446-37.446s37.446 16.798 37.446 37.446v8.26c0 9.25 3.992 17.772 10.75 23.545-8.643 14.358-7.519 26.063-7.519 40.154 0 11.708-20.964 6.689-33.178 35.891v-104.276c0-4.142-3.358-7.5-7.5-7.5s-7.5 3.358-7.5 7.5v104.2c-4.764-11.415-13.443-20.782-24.612-26.474-5.283-2.692-8.565-8.13-8.565-14.191zm-140.009 124.817h458.273v18.184h-458.273zm18.901 116.462h420.643c-4.643 10.729-10.245 21.04-16.734 30.794h-387.128c-6.479-9.732-12.095-20.042-16.781-30.794zm-5.827-15c-4.625-13.527-7.817-27.625-9.382-42.082l-2.836-26.196h456.562c-2.941 27.165-3.835 43.868-12.072 68.278z"/></g></g></svg>