<svg id="Capa_1" enable-background="new 0 0 512 512" height="512" viewBox="0 0 512 512" width="512" xmlns="http://www.w3.org/2000/svg"><g><g><circle cx="256" cy="256" fill="#dff6fd" r="248.5"/><circle cx="256" cy="256" fill="#99e6fc" r="178.5"/><path d="m352.517 26.942c73.934 43.054 123.636 123.161 123.636 214.884 0 137.243-111.257 248.5-248.5 248.5-34.23 0-66.843-6.923-96.517-19.443 36.691 21.368 79.345 33.617 124.864 33.617 137.243 0 248.5-111.257 248.5-248.5 0-103.012-62.681-191.383-151.983-229.058z" fill="#c8effe"/><path d="m196.805 446.429.082-.025c16.681-5.147 34.527-4.598 51.016 1.134 29.243 10.166 63.629 6.754 93.376-15.414 17.324-12.91 16.783-19.378 39.668-42.64 11.204-11.388 16.475-27.338 14.265-43.16-1.788-12.8-8.262-24.145-17.738-32.153-7.531-6.363-14.318-13.539-20.489-21.228-24.555-30.595-66.222-44.807-105.927-32.556l-45.617 14.076c-27.137 8.373-42.347 37.16-33.974 64.296 2.929 9.494-2.392 19.564-11.886 22.494-21.613 6.669-33.727 29.596-27.058 51.208 8.37 27.132 37.151 42.34 64.282 33.968z" fill="#fff2e2"/><path d="m228.652 44.677v177.149c0 5.159 4.183 9.342 9.342 9.342h181.776c8.381 0 12.522-10.183 6.52-16.033l-181.776-177.148c-5.919-5.769-15.862-1.575-15.862 6.69z" fill="#d77f4a"/><path d="m100.017 347.184c15.985 2.854 30.795-9.278 31.762-25.487 1.545-25.926 9.248-61.707 22.463-99.929s29.258-71.119 44.057-92.463c9.252-13.344 5.098-32.034-9.236-39.662-1.248-.664-2.544-1.231-3.888-1.695-31.426-10.866-76.884 38.119-101.534 109.41s-19.155 137.892 12.271 148.757c1.344.465 2.713.82 4.105 1.069z" fill="#d83131"/><circle cx="279.835" cy="356.602" fill="#fea613" r="48.421"/><g><path d="m395.211 346.324c-1.788-12.8-8.262-24.146-17.738-32.153-7.531-6.363-14.318-13.539-20.489-21.228-21.522-26.816-56.188-41.042-91.158-35.9 24.592 3.591 47.173 16.416 62.811 35.9 6.171 7.689 12.959 14.865 20.489 21.228 9.476 8.007 15.95 19.353 17.738 32.153 2.21 15.822-3.061 31.771-14.265 43.16-22.885 23.263-22.344 29.73-39.668 42.64-14.885 11.092-30.93 17.488-46.912 19.836 24.719 3.613 51.471-2.109 75.259-19.836 17.324-12.91 16.783-19.377 39.668-42.64 11.204-11.388 16.476-27.338 14.265-43.16z" fill="#ffefd2"/></g><path d="m326.104 342.326c-7.873-25.517-34.914-39.833-60.435-32.022 14.806 4.549 27.177 16.106 32.088 32.022 7.885 25.553-6.438 52.66-31.992 60.544-.037.012-.073.02-.11.031 8.964 2.754 18.82 2.942 28.457-.031 25.553-7.884 39.876-34.991 31.992-60.544z" fill="#fe9901"/><path d="m426.29 215.135-181.776-177.149c-5.919-5.768-15.862-1.574-15.862 6.69v8.239l166.457 162.22c6.002 5.85 1.861 16.033-6.52 16.033h31.181c8.381 0 12.522-10.183 6.52-16.033z" fill="#c86d36"/><path d="m189.063 89.643c-1.248-.664-2.544-1.23-3.888-1.695-6.978-2.412-14.648-1.868-22.628 1.21.335.161.676.311 1.005.485 14.335 7.629 18.488 26.318 9.236 39.662-14.798 21.344-30.841 54.242-44.057 92.463-13.215 38.221-20.918 74.002-22.463 99.929-.59 9.899-6.348 18.271-14.38 22.643 1.291.697 2.631 1.294 4.025 1.775 1.344.465 2.713.82 4.105 1.068 15.985 2.854 30.795-9.277 31.762-25.487 1.545-25.926 9.248-61.708 22.463-99.929 13.215-38.222 29.258-71.12 44.057-92.463 9.251-13.344 5.097-32.033-9.237-39.661z" fill="#ca2c2c"/></g><g><path d="m256 0c-.004 0 0 0-.004 0-65.016 0-127.003 24.406-174.531 68.719-3.03 2.824-3.196 7.57-.372 10.6 2.826 3.031 7.57 3.196 10.6.371 44.745-41.717 103.097-64.691 164.307-64.69 132.888 0 241 108.112 241 241s-108.112 241-241 241-241-108.112-241-241c0-55.019 19.023-108.824 53.565-151.503 2.605-3.221 2.108-7.942-1.112-10.549-3.219-2.605-7.941-2.108-10.548 1.111-36.696 45.342-56.905 102.499-56.905 160.941 0 141.491 114.497 256 256 256 141.491 0 256-114.497 256-256 0-141.491-114.497-256-256-256z"/><path d="m263.348 303.167c-30.115 9.294-45.936 40.794-36.947 69.923 7.28 23.594 28.748 39.445 53.419 39.445 30.347 0 55.949-24.332 55.949-55.917 0-37.488-36.162-64.642-72.421-53.451zm16.472 94.368c-18.051 0-33.758-11.601-39.086-28.867v-.001c-6.58-21.321 4.995-44.364 27.037-51.167 26.462-8.168 52.998 11.603 52.998 39.118 0 23.167-18.807 40.917-40.949 40.917z"/><path d="m264.175 158.61 27.15-27.149c2.929-2.929 2.929-7.678 0-10.606-2.928-2.93-7.677-2.929-10.606-.001l-27.15 27.149c-2.929 2.929-2.929 7.678 0 10.606 2.928 2.93 7.676 2.93 10.606.001z"/><path d="m278.546 183.588c2.93 2.929 7.678 2.928 10.606 0l27.15-27.15c2.929-2.93 2.929-7.678 0-10.607-2.929-2.928-7.678-2.928-10.606 0l-27.15 27.15c-2.929 2.929-2.929 7.677 0 10.607z"/><path d="m303.523 208.565c2.93 2.929 7.678 2.928 10.606 0l27.15-27.15c2.929-2.93 2.929-7.678 0-10.607-2.929-2.928-7.678-2.928-10.606 0l-27.15 27.15c-2.929 2.93-2.929 7.678 0 10.607z"/><path d="m331.786 447.118c4.785-2.616 9.486-5.637 13.974-8.98 10.444-7.782 15.043-13.6 20.866-20.964 4.375-5.533 9.82-12.42 19.667-22.43 5.827-5.923 10.239-12.875 13.1-20.431 27.481-33.256 42.607-75.208 42.607-118.313 0-43.762-15.559-86.302-43.81-119.784-27.405-32.479-65.169-54.701-106.547-62.772l-41.895-40.828c-10.645-10.375-28.597-2.821-28.597 12.062v28.615c-10.472 1.996-20.776 4.904-30.751 8.675-22.708-10.121-47.042 6.469-64.031 24.776-19.87 21.411-37.562 52.722-49.816 88.164s-17.68 70.994-15.279 100.106c2.13 25.816 11.64 54.634 37.03 59.467 7.551 12.049 16.452 23.207 26.547 33.256-2.29 8.567-2.295 17.869.505 26.937 7.669 24.855 30.285 41.556 56.276 41.556 16.173 0 20.126-5.862 38.843-5.862 23.876 0 29.923 10.134 59.688 10.134 5.42 0 10.886-.425 16.244-1.263 4.093-.641 6.891-4.477 6.251-8.569s-4.482-6.895-8.568-6.251c-4.594.719-9.28 1.083-13.927 1.083-27.083 0-32.653-10.134-59.688-10.134-20.992 0-25.428 5.862-38.843 5.862-19.37 0-36.226-12.449-41.943-30.979-.994-3.221-1.498-6.543-1.498-9.876 0-4.099.755-8.039 2.115-11.701.046-.105.101-.204.143-.311 3.723-9.639 11.541-16.917 21.344-19.941 12.951-3.998 20.156-17.123 17.381-29.793-.6-2.733-3.666-10.332-2.029-21.508.726-4.844 2.269-9.582 4.625-14.041 4.111-7.779 10.309-14.008 17.88-18.096.001 0 .001-.001.002-.001 5.794-3.126 7.95-3.335 53.619-17.426 8.707-2.687 17.718-4.056 26.771-4.056 27.233 0 53.871 12.676 71.095 34.138 12.223 15.231 21.054 21.548 24.463 25.01 16.717 16.98 16.861 44.44.002 61.577-25.026 25.439-25.307 35.684-51.008 49.731-3.635 1.987-4.971 6.544-2.984 10.179 1.985 3.633 6.541 4.969 10.176 2.982zm83.662-253.021-101.675-99.086c47.115 16.847 83.954 53.412 101.675 99.086zm-179.297-114.503v-34.917c0-1.601 1.91-2.507 3.128-1.319l181.776 177.149c1.208 1.178.368 3.161-1.286 3.161h-181.775c-1.016 0-1.842-.826-1.842-1.842v-142.232zm-134.816 260.207s-1.368-.22-2.973-.773c-12.042-4.164-20.111-20.655-22.14-45.248-2.234-27.081 2.918-60.454 14.506-93.971 11.588-33.518 28.15-62.945 46.635-82.863 13.867-14.943 27.561-22.99 38.693-22.99 2.342 0 4.572.356 6.665 1.08 12.36 4.268 16.801 19.343 9.413 29.996-5.598 8.074-10.931 17.153-15.619 25.939-9.66-3.34-15.966-6.746-24.605-2.547-9.561 4.647-13.538 16.147-8.889 25.708 2.246 4.621 6.158 8.091 11.013 9.769l5.911 2.044c-2.112 4.994-4.177 10.105-6.184 15.307l-14.682-5.077c-10.023-3.465-20.998 1.872-24.463 11.894-1.679 4.856-1.366 10.075.88 14.695 2.246 4.621 6.158 8.091 11.013 9.769l14.69 5.08c-1.634 5.329-3.175 10.625-4.598 15.855l-5.913-2.045c-10.021-3.463-20.997 1.872-24.463 11.894-1.679 4.856-1.366 10.075.88 14.695 2.246 4.621 6.158 8.091 11.013 9.769l9.918 3.429c-1.921 10.832-3.205 20.971-3.745 30.043v.005c-.696 11.645-11.347 20.614-22.956 18.543zm68.305-175.337c-1.223 2.524-2.437 5.095-3.637 7.702l-7.066-2.443c-5.178-1.788-2.636-9.864 2.768-8.003zm-21.087 50.856c-.021.06-.042.12-.063.181-.449 1.269-.895 2.54-1.336 3.815-.458 1.324-.914 2.661-1.368 4.008l-14.375-4.971c-2.216-.765-3.381-3.178-2.618-5.385.76-2.199 3.168-3.383 5.386-2.619zm-15.699 52.72c-.667 2.793-1.3 5.564-1.897 8.305l-7.936-2.744c-2.217-.766-3.381-3.178-2.617-5.385.761-2.202 3.171-3.382 5.385-2.619zm229.979 20.209c-12.869-16.035-30.404-28.317-50.866-34.801-9.58-3.036-19.621-4.714-29.897-4.919-10.9-.21-22.028 1.237-33.224 4.691-49.021 15.126-49.514 14.899-56.305 18.548-.02.01-.04.02-.059.031-15.543 8.375-26.435 23.225-29.749 40.569-.014.073-.026.146-.04.219-3.112 16.631 1.757 27.609 2.028 30.521.445 4.868-2.583 9.507-7.352 10.977-10.25 3.163-19.499 9.691-25.843 19.028-5.829-6.19-11.188-12.797-16.033-19.769 13.084-4.387 22.9-16.562 23.773-31.202 3.27-54.86 33.866-143.376 65.197-188.565 8.314-11.99 8.496-28.168-.367-40.521 5.603-1.788 11.3-3.286 17.056-4.484 0 144.375-.154 134.22.343 136.644 1.573 7.667 8.373 13.452 16.5 13.452h181.775c2.137 0 4.396-.453 6.236-1.186.658 6.094.994 12.269.994 18.518 0 31.148-8.588 61.645-24.536 88.118-4.709-29.423-19.972-31.372-39.631-55.869z"/></g></g></svg>